<svg width="23" height="23" viewBox="0 0 23 23" fill="none" xmlns="http://www.w3.org/2000/svg">
<path d="M18.0127 3.83301H4.98699C4.80275 3.83285 4.62238 3.8858 4.46746 3.98552C4.31255 4.08524 4.18966 4.22749 4.11352 4.39526C4.03737 4.56302 4.0112 4.74917 4.03813 4.93143C4.06506 5.11368 4.14395 5.28431 4.26536 5.42288L9.34645 11.2285C9.49927 11.4033 9.58338 11.6278 9.58315 11.86V16.5309C9.58315 16.6053 9.60047 16.6787 9.63374 16.7452C9.66701 16.8117 9.71531 16.8696 9.77482 16.9143L12.6498 19.0705C12.721 19.1239 12.8057 19.1564 12.8943 19.1644C12.9829 19.1724 13.072 19.1556 13.1516 19.1158C13.2312 19.076 13.2981 19.0148 13.3449 18.9391C13.3917 18.8634 13.4165 18.7762 13.4165 18.6872V11.86C13.4163 11.6278 13.5004 11.4033 13.6532 11.2285L18.7343 5.42192C19.2767 4.80284 18.8359 3.83301 18.0127 3.83301Z" stroke="#575757" stroke-width="2" stroke-linecap="round"/>
</svg>
