<svg width="25" height="25" viewBox="0 0 25 25" fill="none" xmlns="http://www.w3.org/2000/svg">
<path d="M11.25 2.5C9.92392 2.5 8.65215 3.02678 7.71447 3.96447C6.77678 4.90215 6.25 6.17392 6.25 7.5C6.25 8.82608 6.77678 10.0979 7.71447 11.0355C8.65215 11.9732 9.92392 12.5 11.25 12.5C12.5761 12.5 13.8479 11.9732 14.7855 11.0355C15.7232 10.0979 16.25 8.82608 16.25 7.5C16.25 6.17392 15.7232 4.90215 14.7855 3.96447C13.8479 3.02678 12.5761 2.5 11.25 2.5ZM7.5 7.5C7.5 6.50544 7.89509 5.55161 8.59835 4.84835C9.30161 4.14509 10.2554 3.75 11.25 3.75C12.2446 3.75 13.1984 4.14509 13.9017 4.84835C14.6049 5.55161 15 6.50544 15 7.5C15 8.49456 14.6049 9.44839 13.9017 10.1517C13.1984 10.8549 12.2446 11.25 11.25 11.25C10.2554 11.25 9.30161 10.8549 8.59835 10.1517C7.89509 9.44839 7.5 8.49456 7.5 7.5ZM5.01125 13.75C4.682 13.7485 4.3557 13.8121 4.05109 13.9371C3.74647 14.062 3.46955 14.246 3.23621 14.4782C3.00287 14.7105 2.81771 14.9866 2.69137 15.2907C2.56503 15.5947 2.5 15.9207 2.5 16.25C2.5 18.3638 3.54125 19.9575 5.16875 20.9963C6.77125 22.0175 8.93125 22.5 11.25 22.5C11.7642 22.5 12.2683 22.4763 12.7625 22.4288C12.4642 22.0574 12.2053 21.6561 11.99 21.2313C11.7475 21.2438 11.5008 21.25 11.25 21.25C9.08125 21.25 7.17875 20.795 5.84125 19.9413C4.52875 19.1038 3.75 17.8875 3.75 16.25C3.75 15.5588 4.31 15 5.01125 15H11.9988C12.2296 14.5517 12.5038 14.135 12.8213 13.75H5.01125ZM23.75 18.125C23.75 19.6168 23.1574 21.0476 22.1025 22.1025C21.0476 23.1574 19.6168 23.75 18.125 23.75C16.6332 23.75 15.2024 23.1574 14.1475 22.1025C13.0926 21.0476 12.5 19.6168 12.5 18.125C12.5 16.6332 13.0926 15.2024 14.1475 14.1475C15.2024 13.0926 16.6332 12.5 18.125 12.5C19.6168 12.5 21.0476 13.0926 22.1025 14.1475C23.1574 15.2024 23.75 16.6332 23.75 18.125ZM18.72 14.825C18.6839 14.6949 18.6062 14.5803 18.4987 14.4986C18.3913 14.4169 18.26 14.3727 18.125 14.3727C17.99 14.3727 17.8588 14.4169 17.7513 14.4986C17.6438 14.5803 17.5661 14.6949 17.53 14.825L16.9338 16.74H15C14.395 16.74 14.1425 17.5488 14.6325 17.92L16.195 19.1038L15.5988 21.0188C15.4113 21.6188 16.0713 22.1188 16.5613 21.7475L18.1238 20.5638L19.6863 21.7475C20.1763 22.1188 20.8363 21.6188 20.6488 21.0188L20.0525 19.1038L21.615 17.92C22.105 17.5488 21.8525 16.74 21.2475 16.74H19.3163L18.72 14.825Z" fill="#575757"/>
</svg>
