<svg width="27" height="27" viewBox="0 0 27 27" fill="none" xmlns="http://www.w3.org/2000/svg">
<path d="M15.1875 9H13.5V14.625L18.315 17.4825L19.125 16.1213L15.1875 13.7812V9ZM14.625 3.375C11.9397 3.375 9.36435 4.44174 7.46554 6.34054C5.56674 8.23935 4.5 10.8147 4.5 13.5H1.125L5.58 18.0338L10.125 13.5H6.75C6.75 11.4114 7.57969 9.40838 9.05653 7.93153C10.5334 6.45468 12.5364 5.625 14.625 5.625C16.7136 5.625 18.7166 6.45468 20.1935 7.93153C21.6703 9.40838 22.5 11.4114 22.5 13.5C22.5 15.5886 21.6703 17.5916 20.1935 19.0685C18.7166 20.5453 16.7136 21.375 14.625 21.375C12.4537 21.375 10.485 20.4862 9.0675 19.0575L7.47 20.655C8.40556 21.6005 9.52013 22.3501 10.7486 22.86C11.9771 23.37 13.2949 23.63 14.625 23.625C17.3103 23.625 19.8856 22.5583 21.7845 20.6595C23.6833 18.7606 24.75 16.1853 24.75 13.5C24.75 10.8147 23.6833 8.23935 21.7845 6.34054C19.8856 4.44174 17.3103 3.375 14.625 3.375Z" fill="#575757"/>
</svg>
