<svg width="26" height="26" viewBox="0 0 26 26" fill="none" xmlns="http://www.w3.org/2000/svg">
<path d="M18.0146 15.0486L18.5086 14.5578L17.3614 13.4052L16.8695 13.8959L18.0146 15.0486ZM20.165 14.352L22.2353 15.4776L23.0099 14.0497L20.9407 12.9252L20.165 14.352ZM22.6329 17.7136L21.0945 19.2443L22.2396 20.3959L23.7779 18.8662L22.6329 17.7136ZM20.1564 19.7362C18.5855 19.8835 14.523 19.7524 10.1225 15.3779L8.97636 16.5295C13.7777 21.3037 18.3483 21.5377 20.308 21.3547L20.1564 19.7362ZM10.1225 15.3779C5.92895 11.2071 5.23345 7.70033 5.14678 6.17825L3.52395 6.27033C3.63228 8.18566 4.49353 12.0727 8.97636 16.5295L10.1225 15.3779ZM11.6121 8.68291L11.923 8.37308L10.779 7.2215L10.4681 7.53025L11.6121 8.68291ZM12.17 4.43516L10.805 2.61083L9.50395 3.58583L10.8689 5.40908L12.17 4.43516ZM6.21061 2.21325L4.50978 3.90325L5.65595 5.05591L7.3557 3.36591L6.21061 2.21325ZM11.0401 8.10658C10.4659 7.53025 10.4659 7.53025 10.4659 7.53241H10.4638L10.4605 7.53675C10.409 7.58865 10.363 7.64564 10.3229 7.70683C10.2644 7.7935 10.2005 7.90725 10.1464 8.05133C10.0145 8.42327 9.98164 8.82311 10.051 9.21158C10.1962 10.1487 10.8419 11.3869 12.495 13.0314L13.6412 11.8787C12.0931 10.3404 11.7248 9.40441 11.6565 8.96241C11.624 8.75225 11.6576 8.64825 11.6674 8.62441C11.6739 8.60997 11.6739 8.6078 11.6674 8.61791C11.6577 8.63286 11.6468 8.64699 11.6349 8.66016L11.624 8.671L11.6132 8.68075L11.0401 8.10658ZM12.495 13.0314C14.1493 14.6759 15.394 15.3172 16.3322 15.4602C16.8121 15.5339 17.1989 15.4754 17.4924 15.366C17.6569 15.3058 17.8105 15.2195 17.9474 15.1103L18.0016 15.0616L18.0092 15.0551L18.0124 15.0518L18.0135 15.0497C18.0135 15.0497 18.0146 15.0486 17.4415 14.4722C16.8674 13.8959 16.8706 13.8948 16.8706 13.8948L16.8728 13.8927L16.8749 13.8905L16.8814 13.8851L16.8923 13.8742L16.9334 13.8417C16.9436 13.8352 16.941 13.836 16.9259 13.8439C16.8988 13.8537 16.7926 13.8872 16.5792 13.8547C16.1307 13.7854 15.1882 13.4171 13.6412 11.8787L12.495 13.0314ZM10.805 2.60975C9.70003 1.13641 7.52903 0.902414 6.21061 2.21325L7.3557 3.36591C7.93203 2.79283 8.9547 2.85241 9.50395 3.58583L10.805 2.60975ZM5.14786 6.17933C5.1262 5.8045 5.29845 5.41233 5.65595 5.057L4.5087 3.90433C3.92695 4.48283 3.4687 5.30183 3.52395 6.27033L5.14786 6.17933ZM21.0945 19.2443C20.7977 19.5412 20.477 19.708 20.1574 19.7372L20.308 21.3547C21.1043 21.2799 21.7554 20.8791 22.2407 20.397L21.0945 19.2443ZM11.923 8.37308C12.9901 7.3125 13.0692 5.63658 12.1711 4.43625L10.87 5.41016C11.3066 5.99408 11.2416 6.76 10.7779 7.22258L11.923 8.37308ZM22.2364 15.4787C23.1214 15.9597 23.259 17.0928 22.6339 17.7147L23.7801 18.8662C25.2318 17.4222 24.7844 15.0139 23.0109 14.0508L22.2364 15.4787ZM18.5086 14.5589C18.9246 14.1451 19.5941 14.0432 20.1661 14.3531L20.9418 12.9263C19.7674 12.2872 18.3114 12.4637 17.3624 13.4062L18.5086 14.5589Z" fill="#575757"/>
</svg>
