<svg width="50" height="50" viewBox="0 0 50 50" fill="none" xmlns="http://www.w3.org/2000/svg">
<circle cx="25" cy="25" r="25" fill="white" fill-opacity="0.55"/>
<path d="M24 26H19C18.7167 26 18.4793 25.904 18.288 25.712C18.0967 25.52 18.0007 25.2827 18 25C17.9993 24.7173 18.0953 24.48 18.288 24.288C18.4807 24.096 18.718 24 19 24H24V19C24 18.7167 24.096 18.4793 24.288 18.288C24.48 18.0967 24.7173 18.0007 25 18C25.2827 17.9993 25.5203 18.0953 25.713 18.288C25.9057 18.4807 26.0013 18.718 26 19V24H31C31.2833 24 31.521 24.096 31.713 24.288C31.905 24.48 32.0007 24.7173 32 25C31.9993 25.2827 31.9033 25.5203 31.712 25.713C31.5207 25.9057 31.2833 26.0013 31 26H26V31C26 31.2833 25.904 31.521 25.712 31.713C25.52 31.905 25.2827 32.0007 25 32C24.7173 31.9993 24.48 31.9033 24.288 31.712C24.096 31.5207 24 31.2833 24 31V26Z" fill="#575757"/>
</svg>
