<svg width="13" height="13" viewBox="0 0 13 13" fill="none" xmlns="http://www.w3.org/2000/svg">
<path d="M3.64476 1.25502L4.54408 0.983878C4.84088 0.894534 5.16006 0.916212 5.44206 1.04487C5.72406 1.17352 5.94962 1.40037 6.07668 1.68309L6.70718 3.08523C6.81661 3.32848 6.84712 3.5999 6.7944 3.86137C6.74169 4.12284 6.60842 4.36124 6.41329 4.54309L5.45361 5.43731C5.32501 5.55941 5.42251 6.03531 5.89236 6.84966C6.36268 7.66448 6.72622 7.9867 6.89383 7.93655L8.15111 7.55213C8.40596 7.47417 8.67882 7.47792 8.93143 7.56285C9.18405 7.64777 9.40375 7.80962 9.55975 8.0257L10.4558 9.26766C10.6368 9.51845 10.7206 9.82642 10.6917 10.1343C10.6627 10.4423 10.523 10.7292 10.2984 10.9419L9.60572 11.5979C9.3821 11.8097 9.1063 11.9583 8.80647 12.0287C8.50664 12.0991 8.1935 12.0887 7.89901 11.9986C6.44765 11.5543 5.10354 10.2357 3.84858 8.06145C2.59083 5.88395 2.11586 4.04723 2.4469 2.54666C2.51367 2.2443 2.65986 1.96521 2.87042 1.73817C3.08097 1.51113 3.34827 1.34435 3.64476 1.25502Z" fill="black"/>
</svg>
