<svg width="50" height="50" viewBox="0 0 50 50" fill="none" xmlns="http://www.w3.org/2000/svg">
<circle cx="25" cy="25" r="25" fill="white" fill-opacity="0.55"/>
<path d="M21 24C21.2833 24 21.521 23.904 21.713 23.712C21.905 23.52 22.0007 23.2827 22 23C21.9993 22.7173 21.9033 22.48 21.712 22.288C21.5207 22.096 21.2833 22 21 22C20.7167 22 20.4793 22.096 20.288 22.288C20.0967 22.48 20.0007 22.7173 20 23C19.9993 23.2827 20.0953 23.5203 20.288 23.713C20.4807 23.9057 20.718 24.0013 21 24ZM25 24C25.2833 24 25.521 23.904 25.713 23.712C25.905 23.52 26.0007 23.2827 26 23C25.9993 22.7173 25.9033 22.48 25.712 22.288C25.5207 22.096 25.2833 22 25 22C24.7167 22 24.4793 22.096 24.288 22.288C24.0967 22.48 24.0007 22.7173 24 23C23.9993 23.2827 24.0953 23.5203 24.288 23.713C24.4807 23.9057 24.718 24.0013 25 24ZM29 24C29.2833 24 29.521 23.904 29.713 23.712C29.905 23.52 30.0007 23.2827 30 23C29.9993 22.7173 29.9033 22.48 29.712 22.288C29.5207 22.096 29.2833 22 29 22C28.7167 22 28.4793 22.096 28.288 22.288C28.0967 22.48 28.0007 22.7173 28 23C27.9993 23.2827 28.0953 23.5203 28.288 23.713C28.4807 23.9057 28.718 24.0013 29 24ZM15 35V17C15 16.45 15.196 15.9793 15.588 15.588C15.98 15.1967 16.4507 15.0007 17 15H33C33.55 15 34.021 15.196 34.413 15.588C34.805 15.98 35.0007 16.4507 35 17V29C35 29.55 34.8043 30.021 34.413 30.413C34.0217 30.805 33.5507 31.0007 33 31H19L15 35ZM18.15 29H33V17H17V30.125L18.15 29Z" fill="#575757"/>
</svg>
