<svg width="50" height="50" viewBox="0 0 50 50" fill="none" xmlns="http://www.w3.org/2000/svg">
<circle cx="25" cy="25" r="25" fill="white" fill-opacity="0.55"/>
<path d="M32.6097 35L23.5297 25.91C24.4597 23.57 23.9997 20.81 22.0897 18.91C19.7897 16.61 16.2097 16.4 13.6597 18.26L17.4997 22.11L16.0797 23.5L12.2497 19.69C10.3897 22.23 10.5997 25.82 12.8997 28.11C14.7597 29.97 17.4697 30.46 19.7897 29.59L28.8997 38.7C29.2897 39.09 29.9197 39.09 30.3097 38.7L32.6097 36.4C32.9997 36 32.9997 35.39 32.6097 35ZM29.6097 36.59L20.1497 27.13C19.5397 27.58 18.8597 27.85 18.1497 27.95C16.7897 28.15 15.3597 27.74 14.3197 26.7C13.3697 25.76 12.9297 24.5 12.9997 23.26L16.0897 26.35L20.3297 22.11L17.2397 19C18.4997 18.95 19.7297 19.39 20.6797 20.33C21.1911 20.8406 21.5711 21.4677 21.7871 22.1574C22.003 22.8471 22.0486 23.5788 21.9197 24.29C21.7949 25.0066 21.4923 25.6805 21.0397 26.25L30.4997 35.7L29.6097 36.59Z" fill="#575757"/>
<mask id="path-3-outside-1_802_4944" maskUnits="userSpaceOnUse" x="21" y="9" width="15" height="18" fill="black">
<rect fill="white" x="21" y="9" width="15" height="18"/>
<path d="M27.664 20.39C27.664 19.906 27.7373 19.4807 27.884 19.114C28.0453 18.7327 28.2433 18.3953 28.478 18.102C28.7127 17.8087 28.962 17.5447 29.226 17.31C29.5047 17.0607 29.7613 16.826 29.996 16.606C30.2307 16.3713 30.4213 16.1367 30.568 15.902C30.7293 15.6673 30.81 15.4107 30.81 15.132C30.81 14.692 30.6267 14.3473 30.26 14.098C29.908 13.8487 29.446 13.724 28.874 13.724C28.2873 13.724 27.752 13.8633 27.268 14.142C26.7987 14.4207 26.4173 14.8093 26.124 15.308L22.846 13.548C23.418 12.5653 24.2467 11.7807 25.332 11.194C26.4173 10.5927 27.7667 10.292 29.38 10.292C30.5093 10.292 31.5067 10.4533 32.372 10.776C33.252 11.084 33.9413 11.546 34.44 12.162C34.9387 12.778 35.188 13.5333 35.188 14.428C35.188 15 35.1 15.4987 34.924 15.924C34.748 16.3493 34.5207 16.7233 34.242 17.046C33.978 17.3687 33.692 17.6693 33.384 17.948C33.076 18.212 32.7827 18.4687 32.504 18.718C32.24 18.9673 32.02 19.224 31.844 19.488C31.668 19.752 31.58 20.0527 31.58 20.39H27.664ZM29.622 26.198C28.9033 26.198 28.3093 25.9707 27.84 25.516C27.3707 25.0613 27.136 24.5187 27.136 23.888C27.136 23.2427 27.3707 22.7073 27.84 22.282C28.3093 21.842 28.9033 21.622 29.622 21.622C30.37 21.622 30.9713 21.842 31.426 22.282C31.8953 22.7073 32.13 23.2427 32.13 23.888C32.13 24.5187 31.8953 25.0613 31.426 25.516C30.9713 25.9707 30.37 26.198 29.622 26.198Z"/>
</mask>
<path d="M27.664 20.39C27.664 19.906 27.7373 19.4807 27.884 19.114C28.0453 18.7327 28.2433 18.3953 28.478 18.102C28.7127 17.8087 28.962 17.5447 29.226 17.31C29.5047 17.0607 29.7613 16.826 29.996 16.606C30.2307 16.3713 30.4213 16.1367 30.568 15.902C30.7293 15.6673 30.81 15.4107 30.81 15.132C30.81 14.692 30.6267 14.3473 30.26 14.098C29.908 13.8487 29.446 13.724 28.874 13.724C28.2873 13.724 27.752 13.8633 27.268 14.142C26.7987 14.4207 26.4173 14.8093 26.124 15.308L22.846 13.548C23.418 12.5653 24.2467 11.7807 25.332 11.194C26.4173 10.5927 27.7667 10.292 29.38 10.292C30.5093 10.292 31.5067 10.4533 32.372 10.776C33.252 11.084 33.9413 11.546 34.44 12.162C34.9387 12.778 35.188 13.5333 35.188 14.428C35.188 15 35.1 15.4987 34.924 15.924C34.748 16.3493 34.5207 16.7233 34.242 17.046C33.978 17.3687 33.692 17.6693 33.384 17.948C33.076 18.212 32.7827 18.4687 32.504 18.718C32.24 18.9673 32.02 19.224 31.844 19.488C31.668 19.752 31.58 20.0527 31.58 20.39H27.664ZM29.622 26.198C28.9033 26.198 28.3093 25.9707 27.84 25.516C27.3707 25.0613 27.136 24.5187 27.136 23.888C27.136 23.2427 27.3707 22.7073 27.84 22.282C28.3093 21.842 28.9033 21.622 29.622 21.622C30.37 21.622 30.9713 21.842 31.426 22.282C31.8953 22.7073 32.13 23.2427 32.13 23.888C32.13 24.5187 31.8953 25.0613 31.426 25.516C30.9713 25.9707 30.37 26.198 29.622 26.198Z" fill="#575757"/>
<path d="M27.664 20.39H26.864V21.19H27.664V20.39ZM27.884 19.114L27.1472 18.8023L27.1442 18.8096L27.1412 18.8169L27.884 19.114ZM28.478 18.102L27.8533 17.6022L28.478 18.102ZM29.226 17.31L29.7575 17.9079L29.7594 17.9062L29.226 17.31ZM29.996 16.606L30.5432 17.1896L30.5526 17.1808L30.5617 17.1717L29.996 16.606ZM30.568 15.902L29.9088 15.4488L29.8989 15.4632L29.8896 15.478L30.568 15.902ZM30.26 14.098L29.7976 14.7508L29.8038 14.7552L29.8102 14.7595L30.26 14.098ZM27.268 14.142L26.8688 13.4486L26.8596 13.4541L27.268 14.142ZM26.124 15.308L25.7456 16.0128L26.4234 16.3768L26.8135 15.7136L26.124 15.308ZM22.846 13.548L22.1546 13.1455L21.7381 13.8611L22.4676 14.2528L22.846 13.548ZM25.332 11.194L25.7124 11.8978L25.7197 11.8938L25.332 11.194ZM32.372 10.776L32.0925 11.5256L32.1001 11.5284L32.1077 11.5311L32.372 10.776ZM34.44 12.162L35.0618 11.6586L34.44 12.162ZM34.924 15.924L35.6632 16.2299V16.2299L34.924 15.924ZM34.242 17.046L33.6365 16.5231L33.6296 16.5312L33.6228 16.5394L34.242 17.046ZM33.384 17.948L33.9046 18.5554L33.9128 18.5484L33.9207 18.5412L33.384 17.948ZM32.504 18.718L31.9706 18.1218L31.9625 18.129L31.9547 18.1364L32.504 18.718ZM31.844 19.488L31.1784 19.0442L31.844 19.488ZM31.58 20.39V21.19H32.38V20.39H31.58ZM27.84 25.516L28.3966 24.9414L27.84 25.516ZM27.84 22.282L28.3773 22.8749L28.3872 22.8656L27.84 22.282ZM31.426 22.282L30.8697 22.8569L30.8791 22.866L30.8888 22.8748L31.426 22.282ZM31.426 25.516L30.8693 24.9413L30.8603 24.9503L31.426 25.516ZM27.664 20.39H28.464C28.464 19.9855 28.5254 19.6646 28.6268 19.4111L27.884 19.114L27.1412 18.8169C26.9493 19.2967 26.864 19.8265 26.864 20.39H27.664ZM27.884 19.114L28.6208 19.4257C28.7564 19.1051 28.9182 18.8323 29.1027 18.6018L28.478 18.102L27.8533 17.6022C27.5684 17.9583 27.3342 18.3603 27.1472 18.8023L27.884 19.114ZM28.478 18.102L29.1027 18.6018C29.3109 18.3415 29.5293 18.1107 29.7575 17.9079L29.226 17.31L28.6945 16.7121C28.3947 16.9786 28.1144 17.2758 27.8533 17.6022L28.478 18.102ZM29.226 17.31L29.7594 17.9062C30.042 17.6534 30.3033 17.4145 30.5432 17.1896L29.996 16.606L29.4488 16.0224C29.2194 16.2375 28.9673 16.468 28.6926 16.7138L29.226 17.31ZM29.996 16.606L30.5617 17.1717C30.831 16.9024 31.062 16.621 31.2464 16.326L30.568 15.902L29.8896 15.478C29.7806 15.6524 29.6304 15.8403 29.4303 16.0403L29.996 16.606ZM30.568 15.902L31.2272 16.3552C31.4781 15.9903 31.61 15.5762 31.61 15.132H30.81H30.01C30.01 15.2451 29.9806 15.3444 29.9088 15.4488L30.568 15.902ZM30.81 15.132H31.61C31.61 14.4247 31.2935 13.8333 30.7098 13.4365L30.26 14.098L29.8102 14.7595C29.9598 14.8613 30.01 14.9593 30.01 15.132H30.81ZM30.26 14.098L30.7224 13.4452C30.1974 13.0733 29.5583 12.924 28.874 12.924V13.724V14.524C29.3337 14.524 29.6186 14.6241 29.7976 14.7508L30.26 14.098ZM28.874 13.724V12.924C28.1546 12.924 27.4805 13.0965 26.8688 13.4487L27.268 14.142L27.6672 14.8353C28.0235 14.6301 28.4201 14.524 28.874 14.524V13.724ZM27.268 14.142L26.8596 13.4541C26.2672 13.8058 25.792 14.2946 25.4345 14.9024L26.124 15.308L26.8135 15.7136C27.0427 15.324 27.3301 15.0355 27.6764 14.8299L27.268 14.142ZM26.124 15.308L26.5024 14.6032L23.2244 12.8432L22.846 13.548L22.4676 14.2528L25.7456 16.0128L26.124 15.308ZM22.846 13.548L23.5374 13.9505C24.0291 13.1057 24.7451 12.4207 25.7124 11.8978L25.332 11.194L24.9516 10.4902C23.7483 11.1407 22.8069 12.025 22.1546 13.1455L22.846 13.548ZM25.332 11.194L25.7197 11.8938C26.656 11.375 27.8627 11.092 29.38 11.092V10.292V9.492C27.6706 9.492 26.1787 9.81032 24.9443 10.4942L25.332 11.194ZM29.38 10.292V11.092C30.4345 11.092 31.334 11.2428 32.0925 11.5256L32.372 10.776L32.6515 10.0264C31.6793 9.6639 30.5842 9.492 29.38 9.492V10.292ZM32.372 10.776L32.1077 11.5311C32.8726 11.7988 33.4284 12.1839 33.8182 12.6654L34.44 12.162L35.0618 11.6586C34.4542 10.9081 33.6314 10.3692 32.6363 10.0209L32.372 10.776ZM34.44 12.162L33.8182 12.6654C34.1868 13.1207 34.388 13.6916 34.388 14.428H35.188H35.988C35.988 13.3751 35.6906 12.4353 35.0618 11.6586L34.44 12.162ZM35.188 14.428H34.388C34.388 14.9197 34.3122 15.3102 34.1848 15.6181L34.924 15.924L35.6632 16.2299C35.8878 15.6871 35.988 15.0803 35.988 14.428H35.188ZM34.924 15.924L34.1848 15.6181C34.0389 15.9707 33.855 16.2701 33.6365 16.5231L34.242 17.046L34.8475 17.5689C35.1863 17.1765 35.4571 16.7279 35.6632 16.2299L34.924 15.924ZM34.242 17.046L33.6228 16.5394C33.384 16.8313 33.1256 17.103 32.8473 17.3548L33.384 17.948L33.9207 18.5412C34.2584 18.2357 34.572 17.906 34.8612 17.5526L34.242 17.046ZM33.384 17.948L32.8634 17.3406C32.5514 17.608 32.2538 17.8684 31.9706 18.1218L32.504 18.718L33.0374 19.3142C33.3115 19.0689 33.6006 18.816 33.9046 18.5554L33.384 17.948ZM32.504 18.718L31.9547 18.1364C31.653 18.4213 31.3922 18.7235 31.1784 19.0442L31.844 19.488L32.5096 19.9318C32.6478 19.7245 32.827 19.5134 33.0533 19.2996L32.504 18.718ZM31.844 19.488L31.1784 19.0442C30.9091 19.4481 30.78 19.9052 30.78 20.39H31.58H32.38C32.38 20.2001 32.4269 20.0559 32.5096 19.9318L31.844 19.488ZM31.58 20.39V19.59H27.664V20.39V21.19H31.58V20.39ZM29.622 26.198V25.398C29.0884 25.398 28.7012 25.2365 28.3966 24.9414L27.84 25.516L27.2834 26.0906C27.9175 26.7049 28.7182 26.998 29.622 26.998V26.198ZM27.84 25.516L28.3966 24.9414C28.0766 24.6313 27.936 24.2935 27.936 23.888H27.136H26.336C26.336 24.7439 26.6648 25.4913 27.2834 26.0906L27.84 25.516ZM27.136 23.888H27.936C27.936 23.4636 28.0788 23.1452 28.3772 22.8748L27.84 22.282L27.3028 21.6892C26.6626 22.2694 26.336 23.0217 26.336 23.888H27.136ZM27.84 22.282L28.3872 22.8656C28.6904 22.5813 29.0808 22.422 29.622 22.422V21.622V20.822C28.7259 20.822 27.9283 21.1027 27.2928 21.6984L27.84 22.282ZM29.622 21.622V22.422C30.2028 22.422 30.591 22.5872 30.8697 22.8569L31.426 22.282L31.9823 21.7071C31.3517 21.0968 30.5372 20.822 29.622 20.822V21.622ZM31.426 22.282L30.8888 22.8748C31.1872 23.1452 31.33 23.4636 31.33 23.888H32.13H32.93C32.93 23.0217 32.6034 22.2694 31.9632 21.6892L31.426 22.282ZM32.13 23.888H31.33C31.33 24.2935 31.1895 24.6313 30.8694 24.9414L31.426 25.516L31.9826 26.0906C32.6012 25.4913 32.93 24.7439 32.93 23.888H32.13ZM31.426 25.516L30.8603 24.9503C30.5802 25.2304 30.1953 25.398 29.622 25.398V26.198V26.998C30.5447 26.998 31.3624 26.7109 31.9917 26.0817L31.426 25.516Z" fill="white" mask="url(#path-3-outside-1_802_4944)"/>
</svg>
