<svg width="50" height="50" viewBox="0 0 50 50" fill="none" xmlns="http://www.w3.org/2000/svg">
<circle cx="25" cy="25" r="25" fill="white" fill-opacity="0.55"/>
<path d="M20.254 31.494L20.978 31.917C22.1989 32.6292 23.5876 33.003 25.001 33C26.5832 33 28.13 32.5308 29.4456 31.6518C30.7611 30.7727 31.7865 29.5233 32.392 28.0615C32.9975 26.5997 33.156 24.9911 32.8473 23.4393C32.5386 21.8874 31.7767 20.462 30.6578 19.3431C29.539 18.2243 28.1136 17.4624 26.5617 17.1537C25.0099 16.845 23.4013 17.0035 21.9395 17.609C20.4777 18.2145 19.2283 19.2398 18.3492 20.5554C17.4702 21.871 17.001 23.4177 17.001 25C16.9981 26.4139 17.3723 27.8029 18.085 29.024L18.507 29.748L17.854 32.149L20.254 31.494ZM15.005 35L16.357 30.032C15.466 28.5049 14.9979 26.768 15.001 25C15.001 19.477 19.478 15 25.001 15C30.524 15 35.001 19.477 35.001 25C35.001 30.523 30.524 35 25.001 35C23.2337 35.003 21.4976 34.5353 19.971 33.645L15.005 35ZM21.392 20.308C21.5267 20.2987 21.661 20.2973 21.795 20.304C21.849 20.308 21.903 20.3133 21.957 20.32C22.116 20.338 22.291 20.435 22.35 20.569C22.648 21.2457 22.9373 21.9257 23.218 22.609C23.28 22.761 23.243 22.956 23.125 23.146C23.065 23.243 22.971 23.379 22.862 23.518C22.749 23.663 22.506 23.929 22.506 23.929C22.506 23.929 22.407 24.047 22.445 24.194C22.459 24.25 22.505 24.331 22.547 24.399L22.606 24.494C22.862 24.921 23.206 25.354 23.626 25.762C23.746 25.878 23.863 25.997 23.989 26.108C24.457 26.521 24.987 26.858 25.559 27.108L25.564 27.11C25.649 27.147 25.692 27.167 25.816 27.22C25.878 27.246 25.9417 27.268 26.007 27.286C26.031 27.2927 26.0553 27.2963 26.08 27.297C26.137 27.2992 26.1937 27.2874 26.2451 27.2626C26.2965 27.2379 26.3411 27.2009 26.375 27.155C27.098 26.279 27.165 26.222 27.17 26.222V26.224C27.2202 26.177 27.28 26.1413 27.3452 26.1194C27.4104 26.0975 27.4796 26.0898 27.548 26.097C27.6093 26.0997 27.6683 26.113 27.725 26.137C28.256 26.38 29.125 26.759 29.125 26.759L29.707 27.02C29.805 27.067 29.894 27.178 29.897 27.285C29.901 27.352 29.907 27.46 29.884 27.658C29.852 27.917 29.774 28.228 29.696 28.391C29.6419 28.5019 29.5711 28.6037 29.486 28.693C29.385 28.7989 29.2745 28.8953 29.156 28.981C29.0733 29.0423 29.0317 29.0723 29.031 29.071C28.9066 29.1499 28.7788 29.2233 28.648 29.291C28.3904 29.4275 28.1061 29.506 27.815 29.521C27.63 29.531 27.445 29.545 27.259 29.535C27.251 29.535 26.691 29.448 26.691 29.448C25.2693 29.074 23.9544 28.3734 22.851 27.402C22.625 27.203 22.415 26.989 22.201 26.776C21.313 25.891 20.64 24.936 20.231 24.034C20.0235 23.5912 19.9111 23.1099 19.901 22.621C19.8972 22.0137 20.096 21.4226 20.466 20.941C20.539 20.847 20.608 20.749 20.727 20.636C20.853 20.516 20.934 20.452 21.021 20.408C21.137 20.351 21.263 20.317 21.392 20.308Z" fill="#575757"/>
</svg>
