<svg width="48" height="48" viewBox="0 0 48 48" fill="none" xmlns="http://www.w3.org/2000/svg">
<path d="M0 14C0 6.26801 6.26801 0 14 0H34C41.732 0 48 6.26801 48 14V34C48 41.732 41.732 48 34 48H14C6.26801 48 0 41.732 0 34V14Z" fill="#00C950"/>
<path d="M33.8006 22C34.2573 24.2413 33.9318 26.5714 32.8785 28.6018C31.8251 30.6322 30.1075 32.24 28.0121 33.1573C25.9167 34.0746 23.5702 34.2458 21.3639 33.6424C19.1576 33.0389 17.2248 31.6974 15.8879 29.8414C14.551 27.9854 13.8907 25.7272 14.0173 23.4434C14.1438 21.1595 15.0495 18.9881 16.5833 17.2912C18.117 15.5942 20.1862 14.4744 22.4457 14.1184C24.7052 13.7625 27.0184 14.1918 28.9996 15.335" stroke="white" stroke-width="2" stroke-linecap="round" stroke-linejoin="round"/>
<path d="M21 23L24 26L34 16" stroke="white" stroke-width="2" stroke-linecap="round" stroke-linejoin="round"/>
</svg>
