<svg width="20" height="21" viewBox="0 0 20 21" fill="none" xmlns="http://www.w3.org/2000/svg">
<path d="M2.5 11.8333C2.5 10.9493 2.85119 10.1014 3.47631 9.47631C4.10143 8.85119 4.94928 8.5 5.83333 8.5H14.1667C15.0507 8.5 15.8986 8.85119 16.5237 9.47631C17.1488 10.1014 17.5 10.9493 17.5 11.8333V17.6667C17.5 18.1087 17.3244 18.5326 17.0118 18.8452C16.6993 19.1577 16.2754 19.3333 15.8333 19.3333H4.16667C3.72464 19.3333 3.30072 19.1577 2.98816 18.8452C2.67559 18.5326 2.5 18.1087 2.5 17.6667V11.8333Z" stroke="#1D1D1D" stroke-width="2" stroke-linecap="round" stroke-linejoin="round"/>
<path d="M2.5 11.8333L4.92833 13.7758C5.9175 14.5675 7.345 14.4883 8.24083 13.5925C8.47183 13.3614 8.74608 13.1781 9.04792 13.0531C9.34976 12.928 9.67328 12.8637 10 12.8637C10.3267 12.8637 10.6502 12.928 10.9521 13.0531C11.2539 13.1781 11.5282 13.3614 11.7592 13.5925C12.192 14.0252 12.7692 14.2832 13.3804 14.317C13.9915 14.3508 14.5937 14.1581 15.0717 13.7758L17.5 11.8333" stroke="#1D1D1D" stroke-width="2" stroke-linecap="round"/>
<path d="M9.99967 5.99998C9.55765 5.99998 9.13372 5.82438 8.82116 5.51182C8.5086 5.19926 8.33301 4.77534 8.33301 4.33331C8.33301 3.60331 8.89717 3.01998 9.39384 2.48581L9.99967 1.83331L10.6055 2.48581C11.1022 3.01998 11.6663 3.60331 11.6663 4.33331C11.6663 4.77534 11.4907 5.19926 11.1782 5.51182C10.8656 5.82438 10.4417 5.99998 9.99967 5.99998Z" stroke="#1D1D1D" stroke-width="2" stroke-linecap="round" stroke-linejoin="round"/>
</svg>
