<svg width="15" height="16" viewBox="0 0 15 16" fill="none" xmlns="http://www.w3.org/2000/svg">
<path d="M5.26973 9.57571C5.4753 9.57571 5.67245 9.49405 5.8178 9.34869C5.96316 9.20333 6.04483 9.00618 6.04483 8.80061C6.04483 8.59504 5.96316 8.39789 5.8178 8.25253C5.67245 8.10717 5.4753 8.02551 5.26973 8.02551C5.06416 8.02551 4.86701 8.10717 4.72165 8.25253C4.57629 8.39789 4.49463 8.59504 4.49463 8.80061C4.49463 9.00618 4.57629 9.20333 4.72165 9.34869C4.86701 9.49405 5.06416 9.57571 5.26973 9.57571ZM5.26973 11.746C5.4753 11.746 5.67245 11.6643 5.8178 11.519C5.96316 11.3736 6.04483 11.1765 6.04483 10.9709C6.04483 10.7653 5.96316 10.5682 5.8178 10.4228C5.67245 10.2775 5.4753 10.1958 5.26973 10.1958C5.06416 10.1958 4.86701 10.2775 4.72165 10.4228C4.57629 10.5682 4.49463 10.7653 4.49463 10.9709C4.49463 11.1765 4.57629 11.3736 4.72165 11.519C4.86701 11.6643 5.06416 11.746 5.26973 11.746ZM8.2151 8.80061C8.2151 9.00618 8.13344 9.20333 7.98808 9.34869C7.84272 9.49405 7.64557 9.57571 7.44 9.57571C7.23443 9.57571 7.03728 9.49405 6.89193 9.34869C6.74657 9.20333 6.6649 9.00618 6.6649 8.80061C6.6649 8.59504 6.74657 8.39789 6.89193 8.25253C7.03728 8.10717 7.23443 8.02551 7.44 8.02551C7.64557 8.02551 7.84272 8.10717 7.98808 8.25253C8.13344 8.39789 8.2151 8.59504 8.2151 8.80061ZM7.44 11.746C7.64557 11.746 7.84272 11.6643 7.98808 11.519C8.13344 11.3736 8.2151 11.1765 8.2151 10.9709C8.2151 10.7653 8.13344 10.5682 7.98808 10.4228C7.84272 10.2775 7.64557 10.1958 7.44 10.1958C7.23443 10.1958 7.03728 10.2775 6.89193 10.4228C6.74657 10.5682 6.6649 10.7653 6.6649 10.9709C6.6649 11.1765 6.74657 11.3736 6.89193 11.519C7.03728 11.6643 7.23443 11.746 7.44 11.746ZM10.3854 8.80061C10.3854 9.00618 10.3037 9.20333 10.1584 9.34869C10.013 9.49405 9.81585 9.57571 9.61028 9.57571C9.40471 9.57571 9.20756 9.49405 9.0622 9.34869C8.91684 9.20333 8.83518 9.00618 8.83518 8.80061C8.83518 8.59504 8.91684 8.39789 9.0622 8.25253C9.20756 8.10717 9.40471 8.02551 9.61028 8.02551C9.81585 8.02551 10.013 8.10717 10.1584 8.25253C10.3037 8.39789 10.3854 8.59504 10.3854 8.80061Z" fill="#575757"/>
<path fill-rule="evenodd" clip-rule="evenodd" d="M4.95957 2.90991C5.08291 2.90991 5.2012 2.95891 5.28842 3.04612C5.37563 3.13334 5.42463 3.25163 5.42463 3.37497V3.84003H9.45514V3.37497C9.45514 3.25163 9.50414 3.13334 9.59136 3.04612C9.67857 2.95891 9.79686 2.90991 9.9202 2.90991C10.0435 2.90991 10.1618 2.95891 10.249 3.04612C10.3363 3.13334 10.3853 3.25163 10.3853 3.37497V3.84499C10.4795 3.84747 10.5674 3.85202 10.6488 3.85863C10.8844 3.87724 11.1052 3.9194 11.3141 4.02605C11.6351 4.18955 11.896 4.45046 12.0595 4.77139C12.1661 4.98036 12.2083 5.2011 12.2269 5.43673C12.2455 5.66306 12.2455 5.939 12.2455 6.27074V11.0205C12.2455 11.3523 12.2455 11.6282 12.2269 11.8545C12.2083 12.0902 12.1661 12.3109 12.0595 12.5199C11.8961 12.8407 11.6355 13.1016 11.3148 13.2652C11.1052 13.3719 10.8844 13.414 10.6488 13.4326C10.4225 13.4513 10.1465 13.4513 9.81541 13.4513H5.06499C4.73324 13.4513 4.45731 13.4513 4.23098 13.4326C3.99535 13.414 3.7746 13.3719 3.56564 13.2652C3.2449 13.1021 2.98401 12.8416 2.8203 12.5211C2.71365 12.3115 2.67148 12.0908 2.65288 11.8552C2.63428 11.6288 2.63428 11.3529 2.63428 11.0218V6.27074C2.63428 5.939 2.63428 5.66306 2.65288 5.43673C2.67148 5.2011 2.71365 4.98036 2.8203 4.77139C2.9838 4.45046 3.24471 4.18955 3.56564 4.02605C3.7746 3.9194 3.99535 3.87724 4.23098 3.85863C4.31242 3.85202 4.40026 3.84747 4.49451 3.84499V3.37497C4.49451 3.3139 4.50654 3.25342 4.52991 3.197C4.55329 3.14058 4.58754 3.08931 4.63073 3.04612C4.67391 3.00294 4.72518 2.96868 4.7816 2.94531C4.83803 2.92194 4.8985 2.90991 4.95957 2.90991ZM4.49451 4.92517V4.77511C4.43181 4.77704 4.36916 4.78055 4.30663 4.78565C4.12867 4.79991 4.04372 4.82596 3.98791 4.85448C3.84183 4.92883 3.72308 5.04758 3.64873 5.19366C3.6202 5.24947 3.59416 5.33442 3.5799 5.51238C3.56502 5.69593 3.5644 5.93404 3.5644 6.28934V6.63038H11.3154V6.28934C11.3154 5.93466 11.3154 5.69593 11.2999 5.51238C11.2856 5.33442 11.2596 5.24947 11.231 5.19366C11.1567 5.04758 11.0379 4.92883 10.8919 4.85448C10.8361 4.82596 10.7511 4.79991 10.5725 4.78565C10.5102 4.78056 10.4478 4.77705 10.3853 4.77511V4.92517C10.3853 5.04851 10.3363 5.1668 10.249 5.25401C10.1618 5.34123 10.0435 5.39023 9.9202 5.39023C9.79686 5.39023 9.67857 5.34123 9.59136 5.25401C9.50414 5.1668 9.45514 5.04851 9.45514 4.92517V4.77015H5.42463V4.92517C5.42463 5.04851 5.37563 5.1668 5.28842 5.25401C5.2012 5.34123 5.08291 5.39023 4.95957 5.39023C4.83623 5.39023 4.71794 5.34123 4.63073 5.25401C4.54351 5.1668 4.49451 5.04851 4.49451 4.92517ZM11.3154 7.25046H3.5644V11.0019C3.5644 11.3566 3.5644 11.5954 3.5799 11.7783C3.59416 11.9569 3.6202 12.0418 3.64873 12.0976C3.72314 12.244 3.84157 12.3624 3.98791 12.4368C4.04372 12.4653 4.12867 12.4914 4.30663 12.5056C4.49017 12.5205 4.72828 12.5211 5.08359 12.5211H9.79619C10.1509 12.5211 10.3896 12.5211 10.5725 12.5056C10.7511 12.4914 10.8361 12.4653 10.8919 12.4368C11.0379 12.3624 11.1567 12.2437 11.231 12.0976C11.2596 12.0418 11.2856 11.9569 11.2999 11.7783C11.3148 11.5954 11.3154 11.3566 11.3154 11.0019V7.25046Z" fill="#575757"/>
<path fill-rule="evenodd" clip-rule="evenodd" d="M6.04492 5.70023C6.04492 5.57689 6.09392 5.4586 6.18113 5.37138C6.26835 5.28417 6.38664 5.23517 6.50998 5.23517H8.37022C8.49356 5.23517 8.61185 5.28417 8.69906 5.37138C8.78628 5.4586 8.83528 5.57689 8.83528 5.70023C8.83528 5.82357 8.78628 5.94186 8.69906 6.02907C8.61185 6.11629 8.49356 6.16529 8.37022 6.16529H6.50998C6.38664 6.16529 6.26835 6.11629 6.18113 6.02907C6.09392 5.94186 6.04492 5.82357 6.04492 5.70023Z" fill="#575757"/>
</svg>
