<svg width="15" height="15" viewBox="0 0 15 15" fill="none" xmlns="http://www.w3.org/2000/svg">
<path d="M13.1074 10.8834C12.6458 10.4184 11.5279 9.73969 10.9856 9.46617C10.2793 9.1104 10.2211 9.08134 9.66596 9.49379C9.29566 9.76904 9.04947 10.0149 8.61609 9.92251C8.18271 9.83008 7.24097 9.30893 6.41636 8.48693C5.59175 7.66494 5.04037 6.69588 4.94764 6.26395C4.85492 5.83203 5.10489 5.58874 5.37753 5.21757C5.76179 4.69438 5.73272 4.60718 5.40427 3.90087C5.1482 3.35152 4.44974 2.2441 3.98294 1.78485C3.48358 1.2916 3.48358 1.3788 3.16182 1.5125C2.89985 1.62269 2.64854 1.75667 2.41104 1.91274C1.94598 2.22172 1.68787 2.47837 1.50737 2.86408C1.32687 3.24979 1.24577 4.15404 2.17793 5.84743C3.11008 7.54083 3.76407 8.40671 5.11768 9.75655C6.47129 11.1064 7.51215 11.8322 9.03377 12.6855C10.9161 13.7398 11.6381 13.5343 12.025 13.3541C12.4118 13.1739 12.6697 12.9181 12.9792 12.453C13.1357 12.2159 13.27 11.9649 13.3803 11.7031C13.5143 11.3825 13.6015 11.3825 13.1074 10.8834Z" stroke="#575757" stroke-width="0.930118" stroke-miterlimit="10"/>
</svg>
