<svg width="24" height="25" viewBox="0 0 24 25" fill="none" xmlns="http://www.w3.org/2000/svg">
<path d="M12 3.4183C10.1435 3.4183 8.36301 4.1558 7.05025 5.46855C5.7375 6.7813 5 8.56178 5 10.4183C5 13.2803 6.782 16.0413 8.738 18.1803C9.73814 19.2699 10.8294 20.2722 12 21.1763C12.1747 21.0423 12.3797 20.879 12.615 20.6863C13.5548 19.9146 14.4393 19.0778 15.262 18.1823C17.218 16.0413 19 13.2813 19 10.4183C19 8.56178 18.2625 6.7813 16.9497 5.46855C15.637 4.1558 13.8565 3.4183 12 3.4183ZM12 23.6323L11.433 23.2423L11.43 23.2403L11.424 23.2353L11.404 23.2213L11.329 23.1683L11.059 22.9713C9.69086 21.9431 8.41988 20.7916 7.262 19.5313C5.218 17.2933 3 14.0543 3 10.4173C3 8.03035 3.94821 5.74116 5.63604 4.05334C7.32387 2.36551 9.61305 1.4173 12 1.4173C14.3869 1.4173 16.6761 2.36551 18.364 4.05334C20.0518 5.74116 21 8.03035 21 10.4173C21 14.0543 18.782 17.2943 16.738 19.5293C15.5804 20.7895 14.3098 21.941 12.942 22.9693C12.8281 23.0544 12.713 23.1381 12.597 23.2203L12.576 23.2343L12.57 23.2393L12.568 23.2403L12 23.6323ZM12 8.4183C11.4696 8.4183 10.9609 8.62901 10.5858 9.00408C10.2107 9.37916 10 9.88786 10 10.4183C10 10.9487 10.2107 11.4574 10.5858 11.8325C10.9609 12.2076 11.4696 12.4183 12 12.4183C12.5304 12.4183 13.0391 12.2076 13.4142 11.8325C13.7893 11.4574 14 10.9487 14 10.4183C14 9.88786 13.7893 9.37916 13.4142 9.00408C13.0391 8.62901 12.5304 8.4183 12 8.4183ZM8 10.4183C8 9.35743 8.42143 8.34002 9.17157 7.58987C9.92172 6.83972 10.9391 6.4183 12 6.4183C13.0609 6.4183 14.0783 6.83972 14.8284 7.58987C15.5786 8.34002 16 9.35743 16 10.4183C16 11.4792 15.5786 12.4966 14.8284 13.2467C14.0783 13.9969 13.0609 14.4183 12 14.4183C10.9391 14.4183 9.92172 13.9969 9.17157 13.2467C8.42143 12.4966 8 11.4792 8 10.4183Z" fill="#575757"/>
</svg>
