<svg width="16" height="16" viewBox="0 0 16 16" fill="none" xmlns="http://www.w3.org/2000/svg">
<path d="M12.3398 12.9975C12.5042 12.9975 12.6619 12.9322 12.7782 12.8159C12.8945 12.6996 12.9598 12.5419 12.9598 12.3774V11.6048C12.9623 9.86486 10.4956 8.50193 7.9992 8.50193C5.50277 8.50193 3.03857 9.86486 3.03857 11.6048V12.3774C3.03857 12.5419 3.1039 12.6996 3.22019 12.8159C3.33648 12.9322 3.4942 12.9975 3.65865 12.9975H12.3398ZM10.234 4.38088C10.234 4.67436 10.1762 4.96496 10.0639 5.23609C9.95155 5.50722 9.78694 5.75358 9.57942 5.9611C9.3719 6.16862 9.12555 6.33323 8.85441 6.44553C8.58328 6.55784 8.29268 6.61565 7.9992 6.61565C7.70573 6.61565 7.41513 6.55784 7.144 6.44553C6.87286 6.33323 6.6265 6.16862 6.41899 5.9611C6.21147 5.75358 6.04686 5.50722 5.93455 5.23609C5.82224 4.96496 5.76444 4.67436 5.76444 4.38088C5.76444 3.78819 5.99989 3.21976 6.41899 2.80067C6.83809 2.38157 7.40651 2.14612 7.9992 2.14612C8.5919 2.14612 9.16032 2.38157 9.57942 2.80067C9.99852 3.21976 10.234 3.78819 10.234 4.38088Z" stroke="#575757" stroke-width="0.930118" stroke-linecap="round" stroke-linejoin="round"/>
</svg>
