<svg width="50" height="50" viewBox="0 0 50 50" fill="none" xmlns="http://www.w3.org/2000/svg">
<circle cx="25" cy="25" r="25" fill="white" fill-opacity="0.55"/>
<path d="M15.8765 19.599C16.0246 18.9328 16.3954 18.337 16.9277 17.91C17.46 17.4829 18.122 17.2501 18.8045 17.25H27.1948C27.8773 17.2499 28.5395 17.4827 29.072 17.9097C29.6045 18.3368 29.9754 18.9327 30.1235 19.599L30.6013 21.75H31.25C31.4489 21.75 31.6397 21.829 31.7803 21.9697C31.921 22.1103 32 22.3011 32 22.5C32 22.6989 31.921 22.8897 31.7803 23.0303C31.6397 23.171 31.4489 23.25 31.25 23.25H30.935L31.1825 24.3637C31.6568 24.6215 32.0527 25.0024 32.3286 25.4664C32.6045 25.9304 32.7501 26.4602 32.75 27V34.5C32.75 35.0967 32.5129 35.669 32.091 36.091C31.669 36.5129 31.0967 36.75 30.5 36.75H29.75C29.1533 36.75 28.581 36.5129 28.159 36.091C27.7371 35.669 27.5 35.0967 27.5 34.5V33.75H18.5V34.5C18.5 35.0967 18.2629 35.669 17.841 36.091C17.419 36.5129 16.8467 36.75 16.25 36.75H15.5C14.9033 36.75 14.331 36.5129 13.909 36.091C13.4871 35.669 13.25 35.0967 13.25 34.5V27C13.2499 26.4602 13.3955 25.9304 13.6714 25.4664C13.9473 25.0024 14.3432 24.6215 14.8175 24.3637L15.065 23.25H14.75C14.5511 23.25 14.3603 23.171 14.2197 23.0303C14.079 22.8897 14 22.6989 14 22.5C14 22.3011 14.079 22.1103 14.2197 21.9697C14.3603 21.829 14.5511 21.75 14.75 21.75H15.398L15.8765 19.599ZM28.6595 19.9245C28.5854 19.5913 28.3999 19.2933 28.1336 19.0797C27.8673 18.8662 27.5361 18.7499 27.1948 18.75H18.8052C18.4639 18.7499 18.1327 18.8662 17.8664 19.0797C17.6001 19.2933 17.4146 19.5913 17.3405 19.9245L16.4353 24H29.5648L28.6595 19.9245ZM29 33.75V34.5C29 34.6989 29.079 34.8897 29.2197 35.0303C29.3603 35.171 29.5511 35.25 29.75 35.25H30.5C30.6989 35.25 30.8897 35.171 31.0303 35.0303C31.171 34.8897 31.25 34.6989 31.25 34.5V33.75H29ZM14.75 33.75V34.5C14.75 34.6989 14.829 34.8897 14.9697 35.0303C15.1103 35.171 15.3011 35.25 15.5 35.25H16.25C16.4489 35.25 16.6397 35.171 16.7803 35.0303C16.921 34.8897 17 34.6989 17 34.5V33.75H14.75ZM16.25 25.5C15.8522 25.5 15.4706 25.658 15.1893 25.9393C14.908 26.2206 14.75 26.6022 14.75 27V32.25H31.25V27C31.25 26.6022 31.092 26.2206 30.8107 25.9393C30.5294 25.658 30.1478 25.5 29.75 25.5H16.25ZM21.125 29.25C20.9261 29.25 20.7353 29.329 20.5947 29.4697C20.454 29.6103 20.375 29.8011 20.375 30C20.375 30.1989 20.454 30.3897 20.5947 30.5303C20.7353 30.671 20.9261 30.75 21.125 30.75H24.875C25.0739 30.75 25.2647 30.671 25.4053 30.5303C25.546 30.3897 25.625 30.1989 25.625 30C25.625 29.8011 25.546 29.6103 25.4053 29.4697C25.2647 29.329 25.0739 29.25 24.875 29.25H21.125ZM19.25 28.125C19.25 28.4234 19.1315 28.7095 18.9205 28.9205C18.7095 29.1315 18.4234 29.25 18.125 29.25C17.8266 29.25 17.5405 29.1315 17.3295 28.9205C17.1185 28.7095 17 28.4234 17 28.125C17 27.8266 17.1185 27.5405 17.3295 27.3295C17.5405 27.1185 17.8266 27 18.125 27C18.4234 27 18.7095 27.1185 18.9205 27.3295C19.1315 27.5405 19.25 27.8266 19.25 28.125ZM27.875 29.25C28.1734 29.25 28.4595 29.1315 28.6705 28.9205C28.8815 28.7095 29 28.4234 29 28.125C29 27.8266 28.8815 27.5405 28.6705 27.3295C28.4595 27.1185 28.1734 27 27.875 27C27.5766 27 27.2905 27.1185 27.0795 27.3295C26.8685 27.5405 26.75 27.8266 26.75 28.125C26.75 28.4234 26.8685 28.7095 27.0795 28.9205C27.2905 29.1315 27.5766 29.25 27.875 29.25Z" fill="#575757"/>
<mask id="path-3-outside-1_48_424" maskUnits="userSpaceOnUse" x="25" y="7" width="15" height="18" fill="black">
<rect fill="white" x="25" y="7" width="15" height="18"/>
<path d="M31.664 18.39C31.664 17.906 31.7373 17.4807 31.884 17.114C32.0453 16.7327 32.2433 16.3953 32.478 16.102C32.7127 15.8087 32.962 15.5447 33.226 15.31C33.5047 15.0607 33.7613 14.826 33.996 14.606C34.2307 14.3713 34.4213 14.1367 34.568 13.902C34.7293 13.6673 34.81 13.4107 34.81 13.132C34.81 12.692 34.6267 12.3473 34.26 12.098C33.908 11.8487 33.446 11.724 32.874 11.724C32.2873 11.724 31.752 11.8633 31.268 12.142C30.7987 12.4207 30.4173 12.8093 30.124 13.308L26.846 11.548C27.418 10.5653 28.2467 9.78067 29.332 9.194C30.4173 8.59267 31.7667 8.292 33.38 8.292C34.5093 8.292 35.5067 8.45333 36.372 8.776C37.252 9.084 37.9413 9.546 38.44 10.162C38.9387 10.778 39.188 11.5333 39.188 12.428C39.188 13 39.1 13.4987 38.924 13.924C38.748 14.3493 38.5207 14.7233 38.242 15.046C37.978 15.3687 37.692 15.6693 37.384 15.948C37.076 16.212 36.7827 16.4687 36.504 16.718C36.24 16.9673 36.02 17.224 35.844 17.488C35.668 17.752 35.58 18.0527 35.58 18.39H31.664ZM33.622 24.198C32.9033 24.198 32.3093 23.9707 31.84 23.516C31.3707 23.0613 31.136 22.5187 31.136 21.888C31.136 21.2427 31.3707 20.7073 31.84 20.282C32.3093 19.842 32.9033 19.622 33.622 19.622C34.37 19.622 34.9713 19.842 35.426 20.282C35.8953 20.7073 36.13 21.2427 36.13 21.888C36.13 22.5187 35.8953 23.0613 35.426 23.516C34.9713 23.9707 34.37 24.198 33.622 24.198Z"/>
</mask>
<path d="M31.664 18.39C31.664 17.906 31.7373 17.4807 31.884 17.114C32.0453 16.7327 32.2433 16.3953 32.478 16.102C32.7127 15.8087 32.962 15.5447 33.226 15.31C33.5047 15.0607 33.7613 14.826 33.996 14.606C34.2307 14.3713 34.4213 14.1367 34.568 13.902C34.7293 13.6673 34.81 13.4107 34.81 13.132C34.81 12.692 34.6267 12.3473 34.26 12.098C33.908 11.8487 33.446 11.724 32.874 11.724C32.2873 11.724 31.752 11.8633 31.268 12.142C30.7987 12.4207 30.4173 12.8093 30.124 13.308L26.846 11.548C27.418 10.5653 28.2467 9.78067 29.332 9.194C30.4173 8.59267 31.7667 8.292 33.38 8.292C34.5093 8.292 35.5067 8.45333 36.372 8.776C37.252 9.084 37.9413 9.546 38.44 10.162C38.9387 10.778 39.188 11.5333 39.188 12.428C39.188 13 39.1 13.4987 38.924 13.924C38.748 14.3493 38.5207 14.7233 38.242 15.046C37.978 15.3687 37.692 15.6693 37.384 15.948C37.076 16.212 36.7827 16.4687 36.504 16.718C36.24 16.9673 36.02 17.224 35.844 17.488C35.668 17.752 35.58 18.0527 35.58 18.39H31.664ZM33.622 24.198C32.9033 24.198 32.3093 23.9707 31.84 23.516C31.3707 23.0613 31.136 22.5187 31.136 21.888C31.136 21.2427 31.3707 20.7073 31.84 20.282C32.3093 19.842 32.9033 19.622 33.622 19.622C34.37 19.622 34.9713 19.842 35.426 20.282C35.8953 20.7073 36.13 21.2427 36.13 21.888C36.13 22.5187 35.8953 23.0613 35.426 23.516C34.9713 23.9707 34.37 24.198 33.622 24.198Z" fill="#575757"/>
<path d="M31.664 18.39H30.864V19.19H31.664V18.39ZM31.884 17.114L31.1472 16.8023L31.1442 16.8096L31.1412 16.8169L31.884 17.114ZM32.478 16.102L31.8533 15.6022L31.8533 15.6022L32.478 16.102ZM33.226 15.31L33.7575 15.9079L33.7594 15.9062L33.226 15.31ZM33.996 14.606L34.5432 15.1896L34.5526 15.1808L34.5617 15.1717L33.996 14.606ZM34.568 13.902L33.9088 13.4488L33.8989 13.4632L33.8896 13.478L34.568 13.902ZM34.26 12.098L33.7976 12.7508L33.8038 12.7552L33.8102 12.7595L34.26 12.098ZM31.268 12.142L30.8688 11.4486L30.8596 11.4541L31.268 12.142ZM30.124 13.308L29.7456 14.0128L30.4234 14.3768L30.8135 13.7136L30.124 13.308ZM26.846 11.548L26.1546 11.1455L25.7381 11.8611L26.4676 12.2528L26.846 11.548ZM29.332 9.194L29.7124 9.8978L29.7197 9.89377L29.332 9.194ZM36.372 8.776L36.0925 9.52558L36.1001 9.52841L36.1077 9.53109L36.372 8.776ZM38.44 10.162L39.0618 9.65864L39.0618 9.65864L38.44 10.162ZM38.924 13.924L39.6632 14.2299L39.6632 14.2299L38.924 13.924ZM38.242 15.046L37.6365 14.5231L37.6296 14.5312L37.6228 14.5394L38.242 15.046ZM37.384 15.948L37.9046 16.5554L37.9128 16.5484L37.9207 16.5412L37.384 15.948ZM36.504 16.718L35.9706 16.1218L35.9625 16.129L35.9547 16.1364L36.504 16.718ZM35.844 17.488L35.1784 17.0442L35.1784 17.0442L35.844 17.488ZM35.58 18.39V19.19H36.38V18.39H35.58ZM31.84 23.516L32.3966 22.9414L32.3966 22.9414L31.84 23.516ZM31.84 20.282L32.3773 20.8749L32.3872 20.8656L31.84 20.282ZM35.426 20.282L34.8697 20.8569L34.8791 20.866L34.8888 20.8748L35.426 20.282ZM35.426 23.516L34.8693 22.9413L34.8603 22.9503L35.426 23.516ZM31.664 18.39H32.464C32.464 17.9855 32.5254 17.6646 32.6268 17.4111L31.884 17.114L31.1412 16.8169C30.9493 17.2967 30.864 17.8265 30.864 18.39H31.664ZM31.884 17.114L32.6208 17.4257C32.7564 17.1051 32.9182 16.8323 33.1027 16.6018L32.478 16.102L31.8533 15.6022C31.5684 15.9583 31.3342 16.3603 31.1472 16.8023L31.884 17.114ZM32.478 16.102L33.1027 16.6018C33.3109 16.3415 33.5293 16.1107 33.7575 15.9079L33.226 15.31L32.6945 14.7121C32.3947 14.9786 32.1144 15.2758 31.8533 15.6022L32.478 16.102ZM33.226 15.31L33.7594 15.9062C34.042 15.6534 34.3033 15.4145 34.5432 15.1896L33.996 14.606L33.4488 14.0224C33.2194 14.2375 32.9673 14.468 32.6926 14.7138L33.226 15.31ZM33.996 14.606L34.5617 15.1717C34.831 14.9024 35.062 14.621 35.2464 14.326L34.568 13.902L33.8896 13.478C33.7806 13.6524 33.6304 13.8403 33.4303 14.0403L33.996 14.606ZM34.568 13.902L35.2272 14.3552C35.4781 13.9903 35.61 13.5762 35.61 13.132H34.81H34.01C34.01 13.2451 33.9806 13.3444 33.9088 13.4488L34.568 13.902ZM34.81 13.132H35.61C35.61 12.4247 35.2935 11.8333 34.7098 11.4365L34.26 12.098L33.8102 12.7595C33.9598 12.8613 34.01 12.9593 34.01 13.132H34.81ZM34.26 12.098L34.7224 11.4452C34.1974 11.0733 33.5583 10.924 32.874 10.924V11.724V12.524C33.3337 12.524 33.6186 12.6241 33.7976 12.7508L34.26 12.098ZM32.874 11.724V10.924C32.1546 10.924 31.4805 11.0965 30.8688 11.4487L31.268 12.142L31.6672 12.8353C32.0235 12.6301 32.4201 12.524 32.874 12.524V11.724ZM31.268 12.142L30.8596 11.4541C30.2672 11.8058 29.792 12.2946 29.4345 12.9024L30.124 13.308L30.8135 13.7136C31.0427 13.324 31.3301 13.0355 31.6764 12.8299L31.268 12.142ZM30.124 13.308L30.5024 12.6032L27.2244 10.8432L26.846 11.548L26.4676 12.2528L29.7456 14.0128L30.124 13.308ZM26.846 11.548L27.5374 11.9505C28.0291 11.1057 28.7451 10.4207 29.7124 9.89776L29.332 9.194L28.9516 8.49023C27.7483 9.14067 26.8069 10.025 26.1546 11.1455L26.846 11.548ZM29.332 9.194L29.7197 9.89377C30.656 9.37501 31.8627 9.092 33.38 9.092V8.292V7.492C31.6706 7.492 30.1787 7.81032 28.9443 8.49423L29.332 9.194ZM33.38 8.292V9.092C34.4345 9.092 35.334 9.24276 36.0925 9.52558L36.372 8.776L36.6515 8.02642C35.6793 7.6639 34.5842 7.492 33.38 7.492V8.292ZM36.372 8.776L36.1077 9.53109C36.8726 9.79878 37.4284 10.1839 37.8182 10.6654L38.44 10.162L39.0618 9.65864C38.4542 8.90813 37.6314 8.36922 36.6363 8.02091L36.372 8.776ZM38.44 10.162L37.8182 10.6654C38.1868 11.1207 38.388 11.6916 38.388 12.428H39.188H39.988C39.988 11.3751 39.6906 10.4353 39.0618 9.65864L38.44 10.162ZM39.188 12.428H38.388C38.388 12.9197 38.3122 13.3102 38.1848 13.6181L38.924 13.924L39.6632 14.2299C39.8878 13.6871 39.988 13.0803 39.988 12.428H39.188ZM38.924 13.924L38.1848 13.6181C38.0389 13.9707 37.855 14.2701 37.6365 14.5231L38.242 15.046L38.8475 15.5689C39.1863 15.1765 39.4571 14.7279 39.6632 14.2299L38.924 13.924ZM38.242 15.046L37.6228 14.5394C37.384 14.8313 37.1256 15.103 36.8473 15.3548L37.384 15.948L37.9207 16.5412C38.2584 16.2357 38.572 15.906 38.8612 15.5526L38.242 15.046ZM37.384 15.948L36.8634 15.3406C36.5514 15.608 36.2538 15.8684 35.9706 16.1218L36.504 16.718L37.0374 17.3142C37.3115 17.0689 37.6006 16.816 37.9046 16.5554L37.384 15.948ZM36.504 16.718L35.9547 16.1364C35.653 16.4213 35.3922 16.7235 35.1784 17.0442L35.844 17.488L36.5096 17.9318C36.6478 17.7245 36.827 17.5134 37.0533 17.2996L36.504 16.718ZM35.844 17.488L35.1784 17.0442C34.9091 17.4481 34.78 17.9052 34.78 18.39H35.58H36.38C36.38 18.2001 36.4269 18.0559 36.5096 17.9318L35.844 17.488ZM35.58 18.39V17.59H31.664V18.39V19.19H35.58V18.39ZM33.622 24.198V23.398C33.0884 23.398 32.7012 23.2365 32.3966 22.9414L31.84 23.516L31.2834 24.0906C31.9175 24.7049 32.7182 24.998 33.622 24.998V24.198ZM31.84 23.516L32.3966 22.9414C32.0765 22.6313 31.936 22.2935 31.936 21.888H31.136H30.336C30.336 22.7439 30.6648 23.4913 31.2834 24.0906L31.84 23.516ZM31.136 21.888H31.936C31.936 21.4636 32.0788 21.1452 32.3772 20.8748L31.84 20.282L31.3028 19.6892C30.6626 20.2694 30.336 21.0217 30.336 21.888H31.136ZM31.84 20.282L32.3872 20.8656C32.6904 20.5813 33.0808 20.422 33.622 20.422V19.622V18.822C32.7259 18.822 31.9283 19.1027 31.2928 19.6984L31.84 20.282ZM33.622 19.622V20.422C34.2028 20.422 34.591 20.5872 34.8697 20.8569L35.426 20.282L35.9823 19.7071C35.3517 19.0968 34.5372 18.822 33.622 18.822V19.622ZM35.426 20.282L34.8888 20.8748C35.1872 21.1452 35.33 21.4636 35.33 21.888H36.13H36.93C36.93 21.0217 36.6034 20.2694 35.9632 19.6892L35.426 20.282ZM36.13 21.888H35.33C35.33 22.2935 35.1895 22.6313 34.8694 22.9414L35.426 23.516L35.9826 24.0906C36.6012 23.4913 36.93 22.7439 36.93 21.888H36.13ZM35.426 23.516L34.8603 22.9503C34.5802 23.2304 34.1953 23.398 33.622 23.398V24.198V24.998C34.5447 24.998 35.3624 24.7109 35.9917 24.0817L35.426 23.516Z" fill="white" mask="url(#path-3-outside-1_48_424)"/>
</svg>
