<svg width="24" height="24" viewBox="0 0 24 24" fill="none" xmlns="http://www.w3.org/2000/svg">
<path d="M15.7641 4C16.3211 4.00002 16.8672 4.15513 17.341 4.44797C17.8149 4.7408 18.1979 5.15979 18.4471 5.658L19.8301 8.423C20.0741 8.323 20.3171 8.222 20.5531 8.105C20.7904 7.98645 21.0652 7.96705 21.3169 8.05106C21.5685 8.13508 21.7765 8.31563 21.8951 8.553C22.0136 8.79037 22.033 9.06511 21.949 9.31678C21.865 9.56846 21.6844 9.77645 21.4471 9.895C20.9531 10.141 20.7271 10.217 20.7271 10.217L21.6831 12.13C21.8921 12.547 22.0001 13.006 22.0001 13.472V16C22.0001 16.4221 21.911 16.8394 21.7387 17.2247C21.5664 17.61 21.3147 17.9546 21.0001 18.236V19.5C21.0001 19.8978 20.842 20.2794 20.5607 20.5607C20.2794 20.842 19.8979 21 19.5001 21C19.1022 21 18.7207 20.842 18.4394 20.5607C18.1581 20.2794 18.0001 19.8978 18.0001 19.5V19H6.00007V19.5C6.00007 19.8978 5.84204 20.2794 5.56073 20.5607C5.27943 20.842 4.8979 21 4.50007 21C4.10225 21 3.72072 20.842 3.43941 20.5607C3.15811 20.2794 3.00007 19.8978 3.00007 19.5V18.236C2.38607 17.686 2.00007 16.888 2.00007 16V13.472C2.00026 13.0065 2.10879 12.5473 2.31707 12.131L3.27307 10.217C3.03078 10.1167 2.79135 10.0097 2.55507 9.896C2.4372 9.83752 2.33203 9.75635 2.24559 9.65715C2.15914 9.55795 2.09313 9.44266 2.05132 9.3179C2.00952 9.19314 1.99275 9.06135 2.00197 8.93009C2.01119 8.79884 2.04623 8.67069 2.10507 8.553C2.22605 8.31668 2.43521 8.13749 2.6873 8.05421C2.93938 7.97093 3.21413 7.99025 3.45207 8.108C3.68807 8.22133 3.92741 8.32633 4.17007 8.423L5.55307 5.658C5.80226 5.15979 6.18524 4.7408 6.65911 4.44797C7.13298 4.15513 7.67902 4.00002 8.23607 4H15.7641ZM18.8341 10.904C17.1341 11.441 14.7151 12 12.0001 12C9.28507 12 6.86607 11.44 5.16607 10.904L4.10607 13.024C4.03638 13.1631 4.00008 13.3165 4.00007 13.472V16C4.00007 16.2652 4.10543 16.5196 4.29297 16.7071C4.4805 16.8946 4.73486 17 5.00007 17H19.0001C19.2653 17 19.5196 16.8946 19.7072 16.7071C19.8947 16.5196 20.0001 16.2652 20.0001 16V13.472C19.9999 13.3168 19.9636 13.1638 19.8941 13.025L18.8341 10.904ZM7.50007 13C7.8979 13 8.27943 13.158 8.56073 13.4393C8.84204 13.7206 9.00007 14.1022 9.00007 14.5C9.00007 14.8978 8.84204 15.2794 8.56073 15.5607C8.27943 15.842 7.8979 16 7.50007 16C7.10225 16 6.72072 15.842 6.43941 15.5607C6.15811 15.2794 6.00007 14.8978 6.00007 14.5C6.00007 14.1022 6.15811 13.7206 6.43941 13.4393C6.72072 13.158 7.10225 13 7.50007 13ZM16.5001 13C16.8979 13 17.2794 13.158 17.5607 13.4393C17.842 13.7206 18.0001 14.1022 18.0001 14.5C18.0001 14.8978 17.842 15.2794 17.5607 15.5607C17.2794 15.842 16.8979 16 16.5001 16C16.1022 16 15.7207 15.842 15.4394 15.5607C15.1581 15.2794 15.0001 14.8978 15.0001 14.5C15.0001 14.1022 15.1581 13.7206 15.4394 13.4393C15.7207 13.158 16.1022 13 16.5001 13ZM15.7641 6H8.23607C8.05041 6.0001 7.86844 6.05188 7.71055 6.14955C7.55265 6.24722 7.42506 6.38692 7.34207 6.553L6.07207 9.09C7.62007 9.555 9.70607 10 12.0001 10C14.2941 10 16.3801 9.555 17.9271 9.09L16.6581 6.553C16.5751 6.38692 16.4475 6.24722 16.2896 6.14955C16.1317 6.05188 15.9497 6.0001 15.7641 6Z" fill="white"/>
</svg>
