<svg width="24" height="24" viewBox="0 0 24 24" fill="none" xmlns="http://www.w3.org/2000/svg">
<path d="M22.61 19L13.53 9.91C14.46 7.57 14 4.81 12.09 2.91C9.78996 0.610002 6.20996 0.400002 3.65996 2.26L7.49996 6.11L6.07996 7.5L2.24996 3.69C0.389961 6.23 0.599962 9.82 2.89996 12.11C4.75996 13.97 7.46996 14.46 9.78996 13.59L18.9 22.7C19.29 23.09 19.92 23.09 20.31 22.7L22.61 20.4C23 20 23 19.39 22.61 19ZM19.61 20.59L10.15 11.13C9.53996 11.58 8.85996 11.85 8.14996 11.95C6.78996 12.15 5.35996 11.74 4.31996 10.7C3.36996 9.76 2.92996 8.5 2.99996 7.26L6.08996 10.35L10.33 6.11L7.23996 3C8.49996 2.95 9.72996 3.39 10.68 4.33C11.1914 4.84066 11.5714 5.4677 11.7873 6.15739C12.0033 6.84709 12.0488 7.57886 11.92 8.29C11.7951 9.00664 11.4926 9.68052 11.04 10.25L20.5 19.7L19.61 20.59Z" fill="white"/>
</svg>
